# xmcd
#
# Track frame offsets: 
#        150
#        13382
#        27747
#        41975
#        56720
#        72420
#        89417
#        103137
#        119117
#        136207
#        151620
#        165537
#        180045
#        195972
#        212290
#        228445
#        243387
#        258112
#        272455
#        286080
#        300997
#        314245
#        328540
#
# Disc length: 4571 seconds
#
# Revision: 0
# Processed by: cddbd v1.5.2PL0 Copyright (c) Steve Scherf et al.
# Submitted via: ExactAudioCopy v0.95b4
#
DISCID=4011d917
DTITLE=Mississippi Sheiks - Complete Recorded Works: Volume 3
DYEAR=1931
DGENRE=Blues
TTITLE0=Shake Hands and Tell Me Goodbye
TTITLE1=Bed Spring Poker
TTITLE2=When You're Sick With The Blues
TTITLE3=I've Got Blood In My Eyes For You
TTITLE4=Shooting High Dice
TTITLE5=Isn't A Pain To Me
TTITLE6=She's Crazy About Her Lovin'
TTITLE7=Tell Me To Do Right
TTITLE8=The New Stop and Listen Blues
TTITLE9=Go 'Way Woman
TTITLE10=New Shake That Thing
TTITLE11=The New Sittin' On Top Of The World
TTITLE12=He Calls That Religion
TTITLE13=Don't Wake It Up
TTITLE14=Please Baby
TTITLE15=I'll Be Gone, Long Gone
TTITLE16=Kitty Cat Blues
TTITLE17=Show Me What You Got
TTITLE18=Hitting The Numbers
TTITLE19=It's Done Got Wet
TTITLE20=Pencil Won't Write No More
TTITLE21=I Am The Devil
TTITLE22=Baby, Please Make A Change
EXTD=
EXTT0=
EXTT1=
EXTT2=
EXTT3=
EXTT4=
EXTT5=
EXTT6=
EXTT7=
EXTT8=
EXTT9=
EXTT10=
EXTT11=
EXTT12=
EXTT13=
EXTT14=
EXTT15=
EXTT16=
EXTT17=
EXTT18=
EXTT19=
EXTT20=
EXTT21=
EXTT22=
PLAYORDER=
